<svg xmlns="http://www.w3.org/2000/svg" width="800" height="500"><defs><style type="text/css"><![CDATA[ 
    .axis path,
    .axis line,
    .legend rect {
      fill: none;
      stroke: #ccc;
      stroke-width: 1px;
    }

    /* hide the zero tick mark */
    .y-axis .tick:first-of-type text {
      opacity: 0;
    }

    /* highlight January tick marks */
    .x-axis .tick:not(:nth-of-type(12n+1)) text {
      opacity: 0.5;
    }

    /* hide every second month tick mark */
    .x-axis .tick:nth-of-type(2n) text {
      opacity: 0;
    }

    .num-fixtures {
      fill: none;
      stroke: #2196f3;
      stroke-width: 2px;
    }

    .legend rect {
      fill: #fff;
    }
   ]]></style></defs><g transform="translate(50, 20)"><g class="axis x-axis" transform="translate(0, 450)" fill="none" font-size="10" font-family="sans-serif" text-anchor="middle"><path class="domain" stroke="currentColor" d="M0.5,0.5H730.5"></path><g class="tick" opacity="1" transform="translate(0.5,0)"><line stroke="currentColor" y2="-450"></line><text fill="currentColor" y="3" dy="0.71em">01/17</text></g><g class="tick" opacity="1" transform="translate(19.31065355176116,0)"><line stroke="currentColor" y2="-450"></line><text fill="currentColor" y="3" dy="0.71em">02/17</text></g><g class="tick" opacity="1" transform="translate(36.30092127593253,0)"><line stroke="currentColor" y2="-450"></line><text fill="currentColor" y="3" dy="0.71em">03/17</text></g><g class="tick" opacity="1" transform="translate(55.086291691199385,0)"><line stroke="currentColor" y2="-450"></line><text fill="currentColor" y="3" dy="0.71em">04/17</text></g><g class="tick" opacity="1" transform="translate(73.29014996709729,0)"><line stroke="currentColor" y2="-450"></line><text fill="currentColor" y="3" dy="0.71em">05/17</text></g><g class="tick" opacity="1" transform="translate(92.10080351885846,0)"><line stroke="currentColor" y2="-450"></line><text fill="currentColor" y="3" dy="0.71em">06/17</text></g><g class="tick" opacity="1" transform="translate(110.30466179475634,0)"><line stroke="currentColor" y2="-450"></line><text fill="currentColor" y="3" dy="0.71em">07/17</text></g><g class="tick" opacity="1" transform="translate(129.11531534651752,0)"><line stroke="currentColor" y2="-450"></line><text fill="currentColor" y="3" dy="0.71em">08/17</text></g><g class="tick" opacity="1" transform="translate(147.92596889827868,0)"><line stroke="currentColor" y2="-450"></line><text fill="currentColor" y="3" dy="0.71em">09/17</text></g><g class="tick" opacity="1" transform="translate(166.12982717417657,0)"><line stroke="currentColor" y2="-450"></line><text fill="currentColor" y="3" dy="0.71em">10/17</text></g><g class="tick" opacity="1" transform="translate(184.96576386243203,0)"><line stroke="currentColor" y2="-450"></line><text fill="currentColor" y="3" dy="0.71em">11/17</text></g><g class="tick" opacity="1" transform="translate(203.1696221383299,0)"><line stroke="currentColor" y2="-450"></line><text fill="currentColor" y="3" dy="0.71em">12/17</text></g><g class="tick" opacity="1" transform="translate(221.98027569009108,0)"><line stroke="currentColor" y2="-450"></line><text fill="currentColor" y="3" dy="0.71em">01/18</text></g><g class="tick" opacity="1" transform="translate(240.79092924185227,0)"><line stroke="currentColor" y2="-450"></line><text fill="currentColor" y="3" dy="0.71em">02/18</text></g><g class="tick" opacity="1" transform="translate(257.78119696602363,0)"><line stroke="currentColor" y2="-450"></line><text fill="currentColor" y="3" dy="0.71em">03/18</text></g><g class="tick" opacity="1" transform="translate(276.5665673812905,0)"><line stroke="currentColor" y2="-450"></line><text fill="currentColor" y="3" dy="0.71em">04/18</text></g><g class="tick" opacity="1" transform="translate(294.77042565718835,0)"><line stroke="currentColor" y2="-450"></line><text fill="currentColor" y="3" dy="0.71em">05/18</text></g><g class="tick" opacity="1" transform="translate(313.5810792089495,0)"><line stroke="currentColor" y2="-450"></line><text fill="currentColor" y="3" dy="0.71em">06/18</text></g><g class="tick" opacity="1" transform="translate(331.78493748484743,0)"><line stroke="currentColor" y2="-450"></line><text fill="currentColor" y="3" dy="0.71em">07/18</text></g><g class="tick" opacity="1" transform="translate(350.5955910366086,0)"><line stroke="currentColor" y2="-450"></line><text fill="currentColor" y="3" dy="0.71em">08/18</text></g><g class="tick" opacity="1" transform="translate(369.40624458836976,0)"><line stroke="currentColor" y2="-450"></line><text fill="currentColor" y="3" dy="0.71em">09/18</text></g><g class="tick" opacity="1" transform="translate(387.6101028642676,0)"><line stroke="currentColor" y2="-450"></line><text fill="currentColor" y="3" dy="0.71em">10/18</text></g><g class="tick" opacity="1" transform="translate(406.4460395525231,0)"><line stroke="currentColor" y2="-450"></line><text fill="currentColor" y="3" dy="0.71em">11/18</text></g><g class="tick" opacity="1" transform="translate(424.64989782842105,0)"><line stroke="currentColor" y2="-450"></line><text fill="currentColor" y="3" dy="0.71em">12/18</text></g><g class="tick" opacity="1" transform="translate(443.46055138018215,0)"><line stroke="currentColor" y2="-450"></line><text fill="currentColor" y="3" dy="0.71em">01/19</text></g><g class="tick" opacity="1" transform="translate(462.2712049319433,0)"><line stroke="currentColor" y2="-450"></line><text fill="currentColor" y="3" dy="0.71em">02/19</text></g><g class="tick" opacity="1" transform="translate(479.26147265611473,0)"><line stroke="currentColor" y2="-450"></line><text fill="currentColor" y="3" dy="0.71em">03/19</text></g><g class="tick" opacity="1" transform="translate(498.0468430713816,0)"><line stroke="currentColor" y2="-450"></line><text fill="currentColor" y="3" dy="0.71em">04/19</text></g><g class="tick" opacity="1" transform="translate(516.2507013472795,0)"><line stroke="currentColor" y2="-450"></line><text fill="currentColor" y="3" dy="0.71em">05/19</text></g><g class="tick" opacity="1" transform="translate(535.0613548990407,0)"><line stroke="currentColor" y2="-450"></line><text fill="currentColor" y="3" dy="0.71em">06/19</text></g><g class="tick" opacity="1" transform="translate(553.2652131749385,0)"><line stroke="currentColor" y2="-450"></line><text fill="currentColor" y="3" dy="0.71em">07/19</text></g><g class="tick" opacity="1" transform="translate(572.0758667266997,0)"><line stroke="currentColor" y2="-450"></line><text fill="currentColor" y="3" dy="0.71em">08/19</text></g><g class="tick" opacity="1" transform="translate(590.8865202784609,0)"><line stroke="currentColor" y2="-450"></line><text fill="currentColor" y="3" dy="0.71em">09/19</text></g><g class="tick" opacity="1" transform="translate(609.0903785543587,0)"><line stroke="currentColor" y2="-450"></line><text fill="currentColor" y="3" dy="0.71em">10/19</text></g><g class="tick" opacity="1" transform="translate(627.9263152426142,0)"><line stroke="currentColor" y2="-450"></line><text fill="currentColor" y="3" dy="0.71em">11/19</text></g><g class="tick" opacity="1" transform="translate(646.130173518512,0)"><line stroke="currentColor" y2="-450"></line><text fill="currentColor" y="3" dy="0.71em">12/19</text></g><g class="tick" opacity="1" transform="translate(664.9408270702733,0)"><line stroke="currentColor" y2="-450"></line><text fill="currentColor" y="3" dy="0.71em">01/20</text></g><g class="tick" opacity="1" transform="translate(683.7514806220345,0)"><line stroke="currentColor" y2="-450"></line><text fill="currentColor" y="3" dy="0.71em">02/20</text></g><g class="tick" opacity="1" transform="translate(701.3485436220691,0)"><line stroke="currentColor" y2="-450"></line><text fill="currentColor" y="3" dy="0.71em">03/20</text></g><g class="tick" opacity="1" transform="translate(720.1339140373359,0)"><line stroke="currentColor" y2="-450"></line><text fill="currentColor" y="3" dy="0.71em">04/20</text></g></g><g class="axis y-axis" fill="none" font-size="10" font-family="sans-serif" text-anchor="end"><path class="domain" stroke="currentColor" d="M0.5,450.5V0.5"></path><g class="tick" opacity="1" transform="translate(0,450.5)"><line stroke="currentColor" x2="730"></line><text fill="currentColor" x="-3" dy="0.32em">0</text></g><g class="tick" opacity="1" transform="translate(0,394.8069306930693)"><line stroke="currentColor" x2="730"></line><text fill="currentColor" x="-3" dy="0.32em">50</text></g><g class="tick" opacity="1" transform="translate(0,339.11386138613864)"><line stroke="currentColor" x2="730"></line><text fill="currentColor" x="-3" dy="0.32em">100</text></g><g class="tick" opacity="1" transform="translate(0,283.4207920792079)"><line stroke="currentColor" x2="730"></line><text fill="currentColor" x="-3" dy="0.32em">150</text></g><g class="tick" opacity="1" transform="translate(0,227.72772277227722)"><line stroke="currentColor" x2="730"></line><text fill="currentColor" x="-3" dy="0.32em">200</text></g><g class="tick" opacity="1" transform="translate(0,172.03465346534654)"><line stroke="currentColor" x2="730"></line><text fill="currentColor" x="-3" dy="0.32em">250</text></g><g class="tick" opacity="1" transform="translate(0,116.34158415841584)"><line stroke="currentColor" x2="730"></line><text fill="currentColor" x="-3" dy="0.32em">300</text></g><g class="tick" opacity="1" transform="translate(0,60.64851485148515)"><line stroke="currentColor" x2="730"></line><text fill="currentColor" x="-3" dy="0.32em">350</text></g><g class="tick" opacity="1" transform="translate(0,4.955445544554459)"><line stroke="currentColor" x2="730"></line><text fill="currentColor" x="-3" dy="0.32em">400</text></g></g><path class="num-fixtures" d="M11.554393377896305,448.88613861386136L11.554393377896305,447.7722772277228L11.554393377896305,446.65841584158414L11.554393377896305,445.54455445544556L11.554393377896305,444.4306930693069L13.374779205486094,443.3168316831683L13.981574481349357,442.2029702970297L32.79222803311052,441.08910891089107L32.79222803311052,439.9752475247525L32.79222803311052,438.86138613861385L32.79222803311052,437.7475247524752L32.79222803311052,436.63366336633663L32.79222803311052,435.519801980198L32.79222803311052,434.4059405940594L32.79222803311052,433.2920792079208L59.491220171094106,432.17821782178214L64.95237765386346,431.06435643564356L71.62712568835936,429.9504950495049L78.90866899871853,428.83663366336634L81.94264537803484,427.7227722772277L86.19021230907768,426.60891089108907L86.19021230907768,425.4950495049505L86.79700758494094,424.38118811881185L86.79700758494094,423.26732673267327L86.79700758494094,422.15346534653463L86.79700758494094,421.039603960396L86.79700758494094,419.9257425742574L88.01059813666747,418.8118811881188L114.1027949987878,417.6980198019802L117.74356665396736,416.5841584158416L119.56395248155715,415.470297029703L119.56395248155715,414.3564356435644L119.56395248155715,413.24257425742576L123.8115194126,412.1287128712871L128.6658816195061,411.01485148514854L129.87947217123263,409.9009900990099L129.87947217123263,408.7871287128713L131.09306272295916,407.6732673267327L131.69985799882244,406.55940594059405L132.3066532746857,405.44554455445547L132.3066532746857,404.33168316831683L132.3066532746857,403.21782178217825L132.91344855054894,402.1039603960396L132.91344855054894,400.990099009901L132.91344855054894,399.8762376237624L133.5202438264122,398.76237623762376L137.76781075745507,397.6485148514852L142.62217296436117,396.53465346534654L149.29692099885708,395.4207920792079L149.29692099885708,394.3069306930693L151.11730682644685,393.1930693069307L151.11730682644685,392.0792079207921L151.7241021023101,390.96534653465346L151.7241021023101,389.8514851485148L152.33089737817338,388.73762376237624L153.5444879298999,387.6237623762376L153.5444879298999,386.509900990099L153.5444879298999,385.3960396039604L158.398850136806,384.28217821782175L158.398850136806,383.16831683168317L158.398850136806,382.05445544554453L172.35514148166106,380.94059405940595L172.96193675752434,379.8267326732673L174.78232258511412,378.7128712871287L182.06386589547327,377.5990099009901L193.59297613687528,376.48514851485146L193.59297613687528,375.3712871287129L194.19977141273856,374.25742574257424L194.19977141273856,373.1435643564356L196.6269525161916,372.0297029702971L202.08810999896096,370.91584158415844L206.3356769300038,369.8019801980198L206.3356769300038,368.6881188118812L206.3356769300038,367.5742574257426L209.3696533093201,366.460396039604L209.3696533093201,365.34653465346537L209.3696533093201,364.23267326732673L210.58324386104667,363.11881188118815L214.83081079208947,362.0049504950495L217.25799189554255,360.89108910891093L219.07837772313232,359.7772277227723L220.89876355072215,358.66336633663366L221.50555882658537,357.5495049504951L221.50555882658537,356.43564356435644L221.50555882658537,355.32178217821786L223.93273993003845,354.2079207920792L225.75312575762823,353.0940594059406L231.82107851626085,351.980198019802L235.46185017144043,350.86633663366337L236.0686454473037,349.7524752475248L239.10262182662,348.63861386138615L239.10262182662,347.5247524752475L239.10262182662,346.41089108910893L240.9230076542098,345.2970297029703L240.9230076542098,344.1831683168317L240.9230076542098,343.0693069306931L241.5298029300731,341.95544554455444L241.5298029300731,340.84158415841586L242.13659820593634,339.7277227722772L242.7433934817996,338.61386138613864L243.35018875766286,337.5L243.35018875766286,336.38613861386136L243.35018875766286,335.2722772277228L244.56377930938942,334.15841584158414L247.59775568870572,333.04455445544556L247.59775568870572,331.9306930693069L247.59775568870572,330.8168316831683L248.81134624043221,329.7029702970297L248.81134624043221,328.58910891089107L250.63173206802205,327.4752475247525L251.2385273438853,326.36138613861385L262.7676375852873,325.2475247524752L265.8016139646036,324.13366336633663L265.8016139646036,323.019801980198L273.0831572749628,321.9059405940594L273.68995255082604,320.7920792079208L274.2967478266893,319.67821782178214L274.9035431025526,318.56435643564356L274.9035431025526,317.4504950495049L277.9375194818689,316.33663366336634L277.9375194818689,315.2227722772277L280.9714958611852,314.10891089108907L288.85983444740765,312.9950495049505L289.46662972327084,311.88118811881185L309.49087382675856,310.76732673267327L310.7044643784851,309.65346534653463L311.9180549302116,308.539603960396L311.9180549302116,307.4257425742574L320.4131887922973,306.3118811881188L320.4131887922973,305.1980198019802L320.4131887922973,304.08415841584156L321.01998406816057,302.9702970297029L321.01998406816057,301.85643564356434L322.2335746198871,300.7425742574257L331.335503757836,299.6287128712871L341.04422817164823,298.5148514851485L342.2578187233748,297.40099009900985L343.4714092751013,296.28712871287127L346.5053856544176,295.1732673267327L346.5053856544176,294.05940594059405L352.5733384130503,292.94554455445547L353.18013368891354,291.83168316831683L355.6073147923666,290.71782178217825L361.6752675509992,289.6039603960396L371.9907872406747,288.490099009901L375.024763619991,287.3762376237624L375.6315588958542,286.26237623762376L376.23835417171756,285.1485148514852L376.84514944758075,284.03465346534654L376.84514944758075,282.9207920792079L376.84514944758075,281.8069306930693L378.66553527517055,280.6930693069307L381.6995116544869,279.5792079207921L382.9131022062134,278.46534653465346L383.5198974820767,277.3514851485148L390.19464551657256,276.23762376237624L392.6218266200256,275.1237623762376L393.83541717175217,274.009900990099L396.26259827520516,272.8960396039604L396.86939355106847,271.78217821782175L401.1169604821113,270.66831683168317L401.7237557579746,269.55445544554453L405.9713226890174,268.44059405940595L405.9713226890174,267.3267326732673L406.5781179648807,266.21287128712873L406.5781179648807,265.09900990099015L406.5781179648807,263.9851485148515L406.5781179648807,262.8712871287129L409.612094344197,261.7574257425743L410.2188896200603,260.64356435643566L410.2188896200603,259.5297029702971L410.82568489592353,258.41584158415844L412.03927544765,257.3019801980198L412.03927544765,256.1881188118812L412.03927544765,255.0742574257426L412.03927544765,253.96039603960398L413.2528659993766,252.84653465346537L419.32081875800924,251.73267326732676L421.141204585599,250.61881188118815L421.7479998614623,249.5049504950495L421.7479998614623,248.3910891089109L422.35479513732554,247.2772277227723L422.35479513732554,246.1633663366337L425.9955667925051,245.04950495049508L428.42274789595814,243.93564356435644L429.6363384476847,242.82178217821783L429.6363384476847,241.70792079207922L430.24313372354794,240.5940594059406L430.24313372354794,239.480198019802L430.84992899941125,238.36633663366337L430.84992899941125,237.25247524752476L435.0974959304541,236.13861386138615L443.5926297925397,235.02475247524754L443.5926297925397,233.91089108910893L443.5926297925397,232.7970297029703L443.5926297925397,231.68316831683168L443.5926297925397,230.56930693069307L443.5926297925397,229.45544554455446L443.5926297925397,228.34158415841586L443.5926297925397,227.22772277227722L445.41301562012956,226.1138613861386L445.41301562012956,225L447.23340144771936,223.8861386138614L450.87417310289885,222.77227722772278L451.4809683787622,221.65841584158414L451.4809683787622,220.54455445544554L452.0877636546254,219.43069306930693L455.1217400339417,218.31683168316832L455.1217400339417,217.2029702970297L464.83046444775397,216.08910891089107L464.83046444775397,214.97524752475246L464.83046444775397,213.86138613861385L466.0440549994805,212.74752475247524L466.0440549994805,211.63366336633663L466.0440549994805,210.519801980198L466.0440549994805,209.4059405940594L470.2916219305233,208.29207920792078L470.8984172063866,207.17821782178217L472.1120077581131,206.06435643564356L473.9323935857029,204.95049504950492L473.9323935857029,203.8366336633663L477.5731652408825,202.7227722772277L477.5731652408825,201.6089108910891L477.5731652408825,200.4950495049505L479.39355106847233,199.38118811881185L480.0003463443355,198.26732673267324L480.6071416201988,197.15346534653463L480.6071416201988,196.03960396039605L480.6071416201988,194.92574257425744L481.82073217192533,193.81188118811883L481.82073217192533,192.69801980198022L481.82073217192533,191.5841584158416L481.82073217192533,190.47029702970298L481.82073217192533,189.35643564356437L482.42752744778863,188.24257425742576L486.6750943788315,187.12871287128715L486.6750943788315,186.01485148514854L487.88868493055793,184.9009900990099L487.88868493055793,183.7871287128713L489.7090707581478,182.67326732673268L491.52945658573753,181.55940594059408L495.7770235167804,180.44554455445547L495.7770235167804,179.33168316831683L495.7770235167804,178.21782178217822L498.2042046202334,177.1039603960396L498.2042046202334,175.990099009901L498.2042046202334,174.8762376237624L500.02459044782324,173.76237623762376L500.6313857236865,172.64851485148515L501.23818099954974,171.53465346534654L501.23818099954974,170.42079207920793L501.23818099954974,169.30693069306932L501.23818099954974,168.19306930693068L501.23818099954974,167.07920792079207L501.23818099954974,165.96534653465346L501.23818099954974,164.85148514851485L502.45177155127624,163.73762376237624L506.0925432064559,162.6237623762376L506.0925432064559,161.509900990099L506.0925432064559,160.3960396039604L506.0925432064559,159.28217821782178L506.0925432064559,158.16831683168317L511.5537006892252,157.05445544554453L517.0148581719945,155.94059405940592L517.6216534478579,154.82673267326732L517.6216534478579,153.7128712871287L520.048834551311,152.5990099009901L520.048834551311,151.48514851485146L523.0828109306273,150.37128712871285L523.6896062064906,149.25742574257424L524.2964014823538,148.14356435643563L525.5099920340803,147.02970297029702L525.5099920340803,145.9158415841584L527.9371731375333,144.80198019801978L533.3983306203027,143.68811881188117L533.3983306203027,142.57425742574256L533.3983306203027,141.46039603960395L535.8255117237558,140.34653465346537L538.8594881030721,139.23267326732676L538.8594881030721,138.11881188118815L538.8594881030721,137.0049504950495L544.3206455858414,135.8910891089109L547.9614172410211,134.7772277227723L557.6701416548333,133.6633663366337L558.8837322065598,132.54950495049508L558.8837322065598,131.43564356435644L558.8837322065598,130.32178217821783L560.0973227582863,129.20792079207922L563.1312991376026,128.0940594059406L563.1312991376026,126.98019801980199L564.3448896893291,125.86633663366338L565.5584802410557,124.75247524752476L565.5584802410557,123.63861386138615L565.5584802410557,122.52475247524754L565.5584802410557,121.41089108910892L565.5584802410557,120.2970297029703L565.5584802410557,119.18316831683168L565.5584802410557,118.06930693069307L565.5584802410557,116.95544554455446L565.5584802410557,115.84158415841584L565.5584802410557,114.72772277227723L565.5584802410557,113.61386138613861L565.5584802410557,112.5L566.7720707927822,111.38613861386139L566.7720707927822,110.27227722772277L567.9856613445087,109.15841584158416L567.9856613445087,108.04455445544554L569.8060471720985,106.93069306930693L571.0196377238251,105.81683168316832L571.0196377238251,104.7029702970297L571.0196377238251,103.58910891089108L575.8739999307312,102.47524752475246L583.7623385169535,101.36138613861385L583.7623385169535,100.24752475247524L583.7623385169535,99.13366336633662L583.7623385169535,98.01980198019801L583.7623385169535,96.90594059405939L583.7623385169535,95.79207920792078L584.3691337928169,94.67821782178217L584.3691337928169,93.56435643564355L586.7963148962699,92.45049504950494L586.7963148962699,91.33663366336631L586.7963148962699,90.2227722772277L586.7963148962699,89.10891089108908L586.7963148962699,87.99504950495047L586.7963148962699,86.88118811881186L595.2914487583556,85.76732673267324L595.8982440342188,84.65346534653463L595.8982440342188,83.53960396039606L602.5729920687147,82.42574257425746L602.5729920687147,81.31188118811883L604.3933778963045,80.19801980198022L608.6409448273473,79.0841584158416L609.2477401032106,77.97029702970299L609.2477401032106,76.85643564356438L609.2477401032106,75.74257425742576L611.6749212066636,74.62871287128715L611.6749212066636,73.51485148514853L611.6749212066636,72.40099009900992L612.8885117583902,71.2871287128713L615.9224881377065,70.17326732673268L617.136078689433,69.05940594059408L617.7428739652963,67.94554455445545L620.7768503446126,66.83168316831684L620.7768503446126,65.71782178217822L623.8108267239289,64.60396039603961L626.238007827382,63.490099009900995L626.238007827382,62.37623762376238L626.238007827382,61.26237623762377L626.238007827382,60.14851485148515L626.238007827382,59.03465346534654L626.238007827382,57.92079207920792L626.8448031032452,56.806930693069305L626.8448031032452,55.693069306930695L627.4515983791085,54.57920792079208L627.4515983791085,53.46534653465346L627.4515983791085,52.35148514851485L627.4515983791085,51.23762376237623L629.8787794825615,50.12376237623762L630.4855747584248,49.009900990099005L639.5875038963737,47.89603960396039L643.2282755515533,46.78217821782177L643.2282755515533,45.66831683168316L643.2282755515533,44.55445544554454L644.4418661032798,43.44059405940593L651.1166141377759,42.326732673267315L652.9369999653655,41.2128712871287L652.9369999653655,40.09900990099008L652.9369999653655,38.98514851485147L658.398157448135,37.87128712871286L659.0049527239981,36.75742574257424L659.0049527239981,35.643564356435625L659.0049527239981,34.52970297029701L659.0049527239981,33.41584158415839L672.35444879299,32.301980198019784L672.35444879299,31.188118811881164L677.8156062757594,30.07425742574255L689.3447165171614,28.960396039603935L691.7718976206144,27.846534653465373L691.7718976206144,26.732673267326756L692.3786928964777,25.61881188118814L692.3786928964777,24.504950495049528L692.3786928964777,23.39108910891091L692.3786928964777,22.277227722772295L694.1990787240675,21.163366336633683L694.1990787240675,20.049504950495066L694.1990787240675,18.935643564356454L714.8301181034184,17.821782178217838L714.8301181034184,16.70792079207922L717.2572992068715,15.594059405940609L717.2572992068715,14.480198019801993L717.2572992068715,13.366336633663378L717.2572992068715,12.252475247524764L717.2572992068715,11.138613861386148L717.8640944827348,10.024752475247533L717.8640944827348,8.910891089108919L717.8640944827348,7.797029702970304L717.8640944827348,6.683168316831689L718.470889758598,5.569306930693074L720.8980708620511,4.455445544554459L729.3932047241368,3.3415841584158446L729.3932047241368,2.2277227722772297L729.3932047241368,1.1138613861386149L730,0"></path><g class="legend" transform="translate(20, 20)"><rect x="-10" y="-14" width="240" height="45"></rect><path class="num-fixtures" d="M 0,0 H 20"></path><text x="30" y="0" style="font-size: 14px;" alignment-baseline="middle">Number of fixtures in OFL: 404</text><text x="30" y="20" style="font-size: 12px;" alignment-baseline="middle">Last updated: 2020-05-26</text></g></g></svg>